<svg width="24" height="24" viewBox="0 0 24 24" fill="none" xmlns="http://www.w3.org/2000/svg">
<path d="M17.8333 13L16.0833 14.75L14.3333 13" stroke="#2329D6" stroke-linecap="round"/>
<path d="M6.16667 13L7.91667 11.25L9.66667 13" stroke="#2329D6" stroke-linecap="round"/>
<path d="M16.0833 14.75L16.0926 13.0294C16.0926 10.758 14.2513 8.91666 11.9798 8.91666C11.1221 8.91666 10.3257 9.17922 9.66667 9.62835" stroke="#2329D6" stroke-linecap="round"/>
<path d="M14.3426 16.4095C13.6835 16.8586 12.8871 17.1211 12.0294 17.1211C9.75801 17.1211 7.91667 15.2798 7.91667 13.0084V11.25V11.25" stroke="#2329D6" stroke-linecap="round"/>
<path fill-rule="evenodd" clip-rule="evenodd" d="M8 7L8.7396 5.8906C9.11053 5.3342 9.73499 5 10.4037 5H13.5963C14.265 5 14.8895 5.3342 15.2604 5.8906L16 7H20C20.5523 7 21 7.44772 21 8V19C21 19.5523 20.5523 20 20 20H4C3.44772 20 3 19.5523 3 19V8C3 7.44772 3.44772 7 4 7H8Z" stroke="#2329D6" stroke-linecap="round" stroke-linejoin="round"/>
</svg>
